<svg width="203" height="236" viewBox="0 0 203 236" fill="none" xmlns="http://www.w3.org/2000/svg">
<path fill-rule="evenodd" clip-rule="evenodd" d="M109.631 100.619V64.6824C129.429 67.6138 146.6 79.7832 157.523 97.1645L130.585 112.717L109.631 100.619ZM92.631 64.4685V101.196L70.881 113.754L42.8897 97.5928C54.0862 79.5196 72.004 66.9914 92.631 64.4685ZM140.602 126.564V151.849L166.287 166.679C168.725 158.784 170.049 150.314 170.049 141.5C170.049 131.238 168.255 121.443 164.997 112.479L140.602 126.564ZM109.631 181.381L133.692 167.49L159.551 182.42C148.797 201.614 130.701 215.198 109.631 218.318V181.381ZM92.631 180.804L70.6406 168.108L42.3135 184.462C53.4658 203.043 71.6464 215.965 92.631 218.531V180.804ZM62.6598 153.085V128.637L35.5093 112.962C32.3612 121.794 30.631 131.422 30.631 141.5C30.631 151.175 32.2255 160.435 35.1384 168.975L62.6598 153.085ZM82.631 49.123C88.4329 47.7323 94.455 47 100.631 47C107.52 47 114.217 47.9111 120.631 49.6308V38.6264C119.841 38.8693 119.001 39 118.131 39C113.437 39 109.631 35.1944 109.631 30.5C109.631 26.885 111.888 23.7971 115.069 22.5681C111.631 19.128 106.879 17 101.631 17C96.3827 17 91.6314 19.128 88.1928 22.5681C91.3743 23.7971 93.631 26.885 93.631 30.5C93.631 35.1944 89.8254 39 85.131 39C84.2609 39 83.4214 38.8693 82.631 38.6264V49.123ZM137.631 56.3987V36C137.631 16.1177 121.513 0 101.631 0C81.7487 0 65.631 16.1177 65.631 36V55.3576C61.4808 57.4451 57.5084 59.8924 53.7458 62.6637C53.0206 62.1366 52.2606 61.6422 51.4669 61.184L40.4167 54.8041C28.1685 47.7326 12.5067 51.9292 5.43513 64.1774C-1.63641 76.4257 2.56019 92.0875 14.8085 99.1591L22.6982 103.714C18.1525 115.286 15.631 128.066 15.631 141.5C15.631 153.417 17.615 164.818 21.2358 175.318L12.8084 180.184C0.56018 187.255 -3.63641 202.917 3.43513 215.166C10.5067 227.414 26.1685 231.61 38.4167 224.539L49.4669 218.159C49.7482 217.997 50.0253 217.83 50.2981 217.658C64.3883 229.188 81.7941 236 100.631 236C119.971 236 137.801 228.819 152.085 216.725C152.323 216.873 152.564 217.018 152.808 217.159L163.859 223.539C176.107 230.61 191.769 226.414 198.84 214.166C205.912 201.917 201.715 186.255 189.467 179.184L180.473 173.992C183.81 163.86 185.631 152.917 185.631 141.5C185.631 128.432 183.245 115.984 178.931 104.664L188.467 99.1591C200.715 92.0875 204.912 76.4257 197.84 64.1775C190.769 51.9292 175.107 47.7326 162.859 54.8042L151.808 61.184C150.643 61.8568 149.551 62.6073 148.534 63.4252C145.075 60.7967 141.432 58.445 137.631 56.3987ZM171.509 89.3197C168.512 84.2978 165.095 79.6127 161.313 75.3267L171.359 69.5266C175.476 67.1495 180.741 68.5602 183.118 72.6775C185.495 76.7947 184.084 82.0595 179.967 84.4366L171.509 89.3197ZM164.27 204.147C167.817 199.697 170.991 194.873 173.74 189.734L180.967 193.906C185.084 196.284 186.495 201.548 184.118 205.666C181.741 209.783 176.476 211.194 172.359 208.816L164.27 204.147ZM28.1779 190.94C31.0014 196.044 34.249 200.826 37.866 205.227L29.9167 209.816C25.7994 212.194 20.5347 210.783 18.1576 206.666C15.7805 202.548 17.1911 197.284 21.3085 194.906L28.1779 190.94ZM40.634 74.5595C36.7988 78.8084 33.3265 83.462 30.2734 88.4578L23.3085 84.4366C19.1911 82.0595 17.7805 76.7947 20.1576 72.6774C22.5347 68.5602 27.7994 67.1495 31.9167 69.5266L40.634 74.5595ZM79.6598 128.315L101.631 115.63L123.602 128.315V153.685L101.631 166.37L79.6598 153.685V128.315Z" fill="#8FE381"/>
</svg>
